<svg width="96" height="96" viewBox="0 0 96 96" fill="none" xmlns="http://www.w3.org/2000/svg">
<path d="M48 0.000976562C74.5094 0.00105037 95.9988 21.4698 95.999 47.9531C95.999 74.4369 74.5095 95.9062 48 95.9062C21.4906 95.9062 0 74.4369 0 47.9531C0.000184005 21.4697 21.4908 0.000976562 48 0.000976562ZM47.7539 53.8555C36.5647 53.8556 26.8593 59.3656 22.0488 67.4268C21.8085 67.8297 21.8818 68.3458 22.2197 68.6689C28.8809 75.0358 37.8671 78.9385 47.7539 78.9385C57.641 78.9384 66.6268 75.0348 73.2881 68.668C73.6258 68.3453 73.6992 67.8296 73.459 67.4268C68.6485 59.3655 58.9426 53.8555 47.7539 53.8555ZM47.7539 16.9688C38.6456 16.9688 31.2617 24.3459 31.2617 33.4453C31.262 42.5446 38.6457 49.9208 47.7539 49.9209C56.8621 49.9209 64.2459 42.5446 64.2461 33.4453C64.2461 24.3458 56.8623 16.9688 47.7539 16.9688Z" fill="#D1D1D1"/>
</svg>
