<svg width="96" height="96" viewBox="0 0 96 96" fill="none" xmlns="http://www.w3.org/2000/svg">
<circle cx="48" cy="48" r="48" fill="#D1D1D1"/>
<g clip-path="url(#clip0_14_3745)">
<mask id="mask0_14_3745" style="mask-type:luminance" maskUnits="userSpaceOnUse" x="20" y="20" width="56" height="57">
<path d="M76 20.0002H20V76.0002H76V20.0002Z" fill="white"/>
</mask>
<g mask="url(#mask0_14_3745)">
<path d="M65.8496 42.9688C65.8496 55.6059 55.6054 65.8501 42.9684 65.8501C38.9035 65.8501 35.0811 64.7872 31.7684 62.9243C30.7574 62.3558 30.3987 61.0751 30.9672 60.0642C31.5358 59.0548 32.8144 58.6959 33.8246 59.263C36.5254 60.7818 39.643 61.6501 42.9684 61.6501C53.2858 61.6501 61.6496 53.2863 61.6496 42.9688C61.6496 32.6514 53.2858 24.2876 42.9684 24.2876C32.651 24.2876 24.2871 32.6514 24.2871 42.9688C24.2871 46.3342 25.1758 49.4854 26.7289 52.2083C27.3036 53.2157 26.9516 54.4993 25.9441 55.0739C24.9372 55.6479 23.6562 55.2981 23.0812 54.2919C21.1757 50.9515 20.0871 47.0833 20.0871 42.9688C20.0871 30.3318 30.3314 20.0876 42.9684 20.0876C55.6054 20.0876 65.8496 30.3318 65.8496 42.9688Z" fill="white"/>
<path d="M75.3027 75.2922C74.4855 76.115 73.1561 76.1201 72.3332 75.3032L56.255 59.3344C55.4323 58.5173 55.4272 57.1878 56.2441 56.3649C57.0613 55.5421 58.3907 55.5371 59.2136 56.354L75.2918 72.3227C76.1145 73.1399 76.1196 74.4693 75.3027 75.2922Z" fill="white"/>
<path d="M51.0158 51.0163C50.1957 51.8364 48.8664 51.8364 48.0463 51.0163L34.9213 37.8913C34.1012 37.0712 34.1012 35.7418 34.9213 34.9217C35.7414 34.1016 37.0707 34.1016 37.8908 34.9217L51.0158 48.0467C51.8359 48.8668 51.8359 50.1962 51.0158 51.0163Z" fill="white"/>
<path d="M37.8908 51.0163C37.0707 51.8364 35.7414 51.8364 34.9213 51.0163C34.1012 50.1962 34.1012 48.8668 34.9213 48.0467L48.0463 34.9217C48.8664 34.1016 50.1957 34.1016 51.0158 34.9217C51.8359 35.7418 51.8359 37.0712 51.0158 37.8913L37.8908 51.0163Z" fill="white"/>
</g>
</g>
<defs>
<clipPath id="clip0_14_3745">
<rect width="56" height="56" fill="white" transform="matrix(-1 0 0 1 76 20)"/>
</clipPath>
</defs>
</svg>
