<svg width="18" height="17" viewBox="0 0 18 17" fill="none" xmlns="http://www.w3.org/2000/svg">
<path fill-rule="evenodd" clip-rule="evenodd" d="M13.2198 1.64645C13.0245 1.45118 12.7079 1.45118 12.5127 1.64645L4.26314 9.89599C3.9954 10.1638 3.82171 10.5111 3.76816 10.886L3.58549 12.1646L4.86416 11.982C5.23903 11.9284 5.58638 11.7547 5.85412 11.487L14.1037 3.23744C14.2989 3.04218 14.2989 2.72559 14.1037 2.53032L13.2198 1.64645ZM11.452 0.585787C12.2331 -0.195262 13.4994 -0.195262 14.2805 0.585787L15.1643 1.46966C15.9454 2.25071 15.9454 3.51705 15.1643 4.2981L6.91478 12.5477C6.41752 13.0449 5.77243 13.3674 5.0763 13.4669L3.46764 13.6967C2.64268 13.8146 1.93557 13.1074 2.05342 12.2825L2.28324 10.6738C2.38269 9.97768 2.70525 9.3326 3.20244 8.83537L11.452 0.585787Z" fill="#202020"/>
<path fill-rule="evenodd" clip-rule="evenodd" d="M0 15.5C0 15.0858 0.335786 14.75 0.75 14.75H16.75C17.1642 14.75 17.5 15.0858 17.5 15.5C17.5 15.9142 17.1642 16.25 16.75 16.25H0.75C0.335786 16.25 0 15.9142 0 15.5Z" fill="#202020"/>
</svg>
